<?xml version="1.0" standalone="no"?><!DOCTYPE svg PUBLIC "-//W3C//DTD SVG 1.1//EN" "http://www.w3.org/Graphics/SVG/1.1/DTD/svg11.dtd"><svg t="1775028026496" class="icon" viewBox="0 0 1024 1024" version="1.1" xmlns="http://www.w3.org/2000/svg" p-id="11440" xmlns:xlink="http://www.w3.org/1999/xlink" width="200" height="200"><path d="M149.333333 405.333333L512 170.666667l362.666667 234.666666v405.333334a106.666667 106.666667 0 0 1-106.666667 106.666666H256a106.666667 106.666667 0 0 1-106.666667-106.666666V405.333333z" fill="#DCDFE6" p-id="11441"></path><path d="M494.272 112.106667a32 32 0 0 1 35.669333 0l426.56 286.442666a32 32 0 1 1-35.669333 53.12L512.085333 177.194667 103.168 451.690667a32 32 0 0 1-42.56-6.272l-1.834667-2.474667a32 32 0 0 1 8.746667-44.394667L494.250667 112.106667zM512 533.333333c80.853333 0 146.709333 62.933333 149.248 141.546667l0.085333 4.736V917.333333H362.666667V679.616C362.666667 598.826667 429.525333 533.333333 512 533.333333z" fill="#323847" p-id="11442"></path></svg>